<?xml version="1.0" encoding="UTF-8"?>
<svg width="140px" height="47px" viewBox="0 0 140 47" version="1.1" xmlns="http://www.w3.org/2000/svg" xmlns:xlink="http://www.w3.org/1999/xlink">
    <title>insmed logo</title>
    <defs>
        <polygon id="path-1" points="0 0.484569379 136.08 0.484569379 136.08 31 0 31"></polygon>
    </defs>
    <g id="Symbols" stroke="none" stroke-width="1" fill="none" fill-rule="evenodd">
        <g id="insmed-logo" transform="translate(0.000000, -0.000100)">
            <path d="M20.6154,10.4781 C21.9774,10.4781 23.0464,11.5811 22.9954,12.9431 C22.9484,14.3051 21.8084,15.4081 20.4434,15.4081 C19.0814,15.4081 18.0164,14.3051 18.0634,12.9431 C18.1114,11.5811 19.2544,10.4781 20.6154,10.4781" id="Fill-1" fill="#0B85C8"></path>
            <path d="M35.7404,14.1636 C37.1044,14.1636 38.1684,15.2686 38.1224,16.6306 C38.0734,17.9936 36.9324,19.0986 35.5694,19.0986 C34.2044,19.0986 33.1424,17.9936 33.1894,16.6306 C33.2354,15.2686 34.3794,14.1636 35.7404,14.1636" id="Fill-3" fill="#0B85C8"></path>
            <path d="M22.0768,1.939 C23.2638,1.939 24.1928,2.899 24.1508,4.088 C24.1098,5.274 23.1138,6.237 21.9268,6.237 C20.7428,6.237 19.8128,5.274 19.8558,4.088 C19.8958,2.899 20.8928,1.939 22.0768,1.939" id="Fill-5" fill="#0B85C8"></path>
            <path d="M13.3698,14.1636 C14.7328,14.1636 15.8008,15.2686 15.7508,16.6306 C15.7038,17.9936 14.5628,19.0986 13.1988,19.0986 C11.8378,19.0986 10.7708,17.9936 10.8178,16.6306 C10.8668,15.2686 12.0088,14.1636 13.3698,14.1636" id="Fill-7" fill="#70BF4A"></path>
            <path d="M42.7453,6.8565 C44.4643,6.8565 45.8113,8.2525 45.7543,9.9745 C45.6923,11.6985 44.2473,13.0935 42.5263,13.0935 C40.8023,13.0935 39.4583,11.6985 39.5173,9.9745 C39.5773,8.2525 41.0223,6.8565 42.7453,6.8565" id="Fill-9" fill="#70BF4A"></path>
            <path d="M28.7849,6.8565 C30.5069,6.8565 31.8529,8.2525 31.7919,9.9745 C31.7329,11.6985 30.2909,13.0935 28.5659,13.0935 C26.8449,13.0935 25.4979,11.6985 25.5569,9.9745 C25.6179,8.2525 27.0599,6.8565 28.7849,6.8565" id="Fill-11" fill="#70BF4A"></path>
            <path d="M6.1242,11.1153 C7.4852,11.1153 8.5522,12.2193 8.5052,13.5833 C8.4582,14.9443 7.3142,16.0483 5.9542,16.0483 C4.5902,16.0483 3.5252,14.9443 3.5742,13.5833 C3.6202,12.2193 4.7632,11.1153 6.1242,11.1153" id="Fill-13" fill="#482D8C"></path>
            <path d="M35.7634,-6.77626358e-20 C37.4874,-6.77626358e-20 38.8334,1.394 38.7724,3.118 C38.7134,4.84 37.2694,6.237 35.5484,6.237 C33.8234,6.237 32.4764,4.84 32.5374,3.118 C32.5964,1.394 34.0414,-6.77626358e-20 35.7634,-6.77626358e-20" id="Fill-15" fill="#482D8C"></path>
            <g id="Group-19" transform="translate(0.000000, 15.078900)">
                <mask id="mask-2" fill="white">
                    <use xlink:href="#path-1"></use>
                </mask>
                <g id="Clip-18"></g>
                <path d="M128.09,13.2995 C126.94,13.0475 125.833,12.9195 124.77,12.9195 C123.383,12.9195 121.869,13.2685 120.604,14.5335 C119.517,15.6205 118.756,17.3955 118.756,20.7405 C118.756,24.8375 120.003,27.3015 122.919,27.3015 C126.227,27.3015 128.09,23.3605 128.09,19.7735 L128.09,13.2995 Z M124.431,0.8235 C126.376,0.5845 129.481,0.3945 132.588,0.5295 L132.588,27.0905 C133.743,27.2665 134.842,27.3895 136.08,27.5105 L136.08,30.2825 C133.925,30.5295 130.961,30.7205 128.303,30.5835 C128.291,29.0795 128.425,27.5235 128.599,26.6685 L128.514,26.6685 C127.291,29.4245 124.84,31.0005 121.723,31.0005 C116.142,31.0005 114.046,26.6285 114.046,21.1605 C114.046,15.1765 117.163,9.3445 124.945,9.3445 C125.734,9.3445 127.161,9.3985 128.09,9.5145 L128.09,4.0195 C127.26,3.8565 125.143,3.6635 124.43,3.5985 L124.431,0.8235 Z M103.157,9.2615 C97.061,9.2615 93.613,13.9725 93.613,20.2785 C93.613,27.6365 97.184,31.0005 103.702,31.0005 C106.268,31.0005 108.834,30.5375 110.936,29.6545 L110.514,26.0825 C108.793,26.9215 106.563,27.4275 104.419,27.4275 C100.256,27.4275 98.111,25.2395 98.237,20.4035 L111.567,20.4035 C111.649,19.6055 111.693,18.8915 111.693,18.3015 C111.693,13.3415 109.127,9.2615 103.157,9.2615 L103.157,9.2615 Z M107.194,17.2515 L98.321,17.2515 C98.699,14.4325 100.466,12.5855 102.988,12.5835 C105.638,12.5835 107.278,14.3925 107.194,17.2515 L107.194,17.2515 Z M82.518,9.3185 C86.32,9.3185 88.662,11.4055 88.662,16.0065 L88.662,27.3155 C89.613,27.3945 91.303,27.6165 92.152,27.8615 L92.152,30.6385 L84.162,30.6385 L84.162,17.1815 C84.162,14.8225 83.593,13.0615 81.166,13.0615 C78.217,13.0615 75.833,16.4815 75.833,20.5475 L75.833,30.6385 L71.337,30.6385 L71.337,17.1815 C71.337,14.8225 70.767,13.0615 68.341,13.0615 C65.392,13.0615 63.007,16.4815 63.007,20.5475 L63.007,30.6385 L58.511,30.6385 L58.511,13.2305 C57.681,13.0675 55.564,12.8755 54.851,12.8105 L54.851,10.0355 C56.97,9.7365 60.477,9.6415 62.841,9.7405 C62.847,10.5775 62.721,12.7715 62.499,13.8195 L62.554,13.8455 C63.981,10.7815 66.657,9.3185 69.796,9.3185 C73.428,9.3185 75.069,11.6485 75.442,13.7675 C76.843,10.9155 79.316,9.3185 82.518,9.3185 L82.518,9.3185 Z M51.882,9.8935 L51.882,15.7375 L49.109,15.7375 C48.856,14.7855 48.69,13.7755 48.602,12.7075 C47.903,12.5695 47.19,12.5015 46.46,12.5015 C44.033,12.5015 42.633,13.4355 42.633,15.2335 C42.633,15.9095 42.861,16.3825 43.2,16.7225 C45.025,18.5465 49.237,18.3065 51.651,20.7205 C52.494,21.5635 52.937,22.4695 52.937,24.0205 C52.937,28.2235 49.176,31.0005 43.769,31.0005 C42.137,31.0005 39.939,30.7765 38.597,30.4105 L38.597,24.3155 L41.416,24.3155 C41.638,25.3505 41.793,26.3755 41.876,27.3825 C42.359,27.4735 43.348,27.5955 44.191,27.5955 C46.492,27.5955 48.437,26.6315 48.437,24.6935 C48.437,23.9795 48.17,23.5355 47.882,23.2475 C46.142,21.5075 41.885,21.6965 39.473,19.2845 C38.596,18.4075 38.134,17.4415 38.134,15.7375 C38.134,11.7055 41.582,9.2615 46.795,9.2615 C48.389,9.2615 50.269,9.5255 51.882,9.8935 L51.882,9.8935 Z M19.129,9.7405 C19.135,10.5775 19.009,12.7715 18.787,13.8195 L18.841,13.8455 C20.269,10.7815 22.945,9.3185 26.084,9.3185 C29.97,9.3185 32.331,11.4055 32.331,16.0065 L32.331,27.3155 C33.282,27.3945 34.972,27.6165 35.821,27.8615 L35.821,30.6385 L27.831,30.6385 L27.831,17.1815 C27.831,14.6275 27.213,13.0615 24.731,13.0615 C21.7,13.0615 19.296,16.3745 19.296,20.5475 L19.296,30.6385 L14.799,30.6385 L14.799,13.2305 C13.969,13.0675 11.852,12.8755 11.139,12.8105 L11.139,10.0355 C13.258,9.7365 16.765,9.6415 19.129,9.7405 L19.129,9.7405 Z M8.202,4.0195 L8.202,30.6385 L3.617,30.6385 L3.617,7.3335 C2.279,7.2065 1.127,7.0635 0,6.7945 L0,4.0195 L8.202,4.0195 Z" id="Fill-17" fill="#482D8C" mask="url(#mask-2)"></path>
            </g>
            <path d="M134.6677,17.9004 L134.6677,17.8874 C134.6677,16.6224 135.6947,15.5634 136.9987,15.5634 C138.3017,15.5634 139.3157,16.6094 139.3157,17.8744 L139.3157,17.8874 C139.3157,19.1524 138.2887,20.2124 136.9857,20.2124 C135.6827,20.2124 134.6677,19.1654 134.6677,17.9004 L134.6677,17.9004 Z M139.1047,17.8874 L139.1047,17.8744 C139.1047,16.7124 138.1987,15.7624 136.9987,15.7624 C135.7917,15.7624 134.8797,16.7254 134.8797,17.8874 L134.8797,17.9004 C134.8797,19.0624 135.7847,20.0124 136.9857,20.0124 C138.1927,20.0124 139.1047,19.0494 139.1047,17.8874 L139.1047,17.8874 Z M136.0807,16.6294 L137.1457,16.6294 C137.4477,16.6294 137.6977,16.7254 137.8527,16.8794 C137.9677,16.9884 138.0447,17.1494 138.0447,17.3414 L138.0447,17.3554 C138.0447,17.7394 137.7887,17.9714 137.4287,18.0544 L138.1667,19.0104 L137.7307,19.0104 L137.0427,18.1124 L137.0307,18.1124 L136.4337,18.1124 L136.4337,19.0104 L136.0807,19.0104 L136.0807,16.6294 Z M137.1137,17.7974 C137.4477,17.7974 137.6787,17.6434 137.6787,17.3744 L137.6787,17.3604 C137.6787,17.1104 137.4737,16.9504 137.1337,16.9504 L136.4337,16.9504 L136.4337,17.7974 L137.1137,17.7974 Z" id="Fill-20" fill="#482D8C"></path>
        </g>
    </g>
</svg>