<?xml version="1.0" encoding="UTF-8"?>
<svg width="140px" height="47px" viewBox="0 0 140 47" version="1.1" xmlns="http://www.w3.org/2000/svg" xmlns:xlink="http://www.w3.org/1999/xlink">
    <title>insmed logo</title>
    <defs>
        <polygon id="path-1" points="0 0.484569379 136.08 0.484569379 136.08 31 0 31"></polygon>
    </defs>
    <g id="Symbols" stroke="none" stroke-width="1" fill="none" fill-rule="evenodd">
        <g id="insmed-logo">
            <path d="M20.6154,10.478 C21.9774,10.478 23.0464,11.581 22.9954,12.943 C22.9484,14.305 21.8084,15.408 20.4434,15.408 C19.0814,15.408 18.0164,14.305 18.0634,12.943 C18.1114,11.581 19.2544,10.478 20.6154,10.478" id="Fill-1" fill="#FFFFFF"></path>
            <path d="M35.7404,14.1635 C37.1044,14.1635 38.1684,15.2685 38.1224,16.6305 C38.0734,17.9935 36.9324,19.0985 35.5694,19.0985 C34.2044,19.0985 33.1424,17.9935 33.1894,16.6305 C33.2354,15.2685 34.3794,14.1635 35.7404,14.1635" id="Fill-3" fill="#FFFFFF"></path>
            <path d="M22.0768,1.9389 C23.2638,1.9389 24.1928,2.8989 24.1508,4.0879 C24.1098,5.2739 23.1138,6.2369 21.9268,6.2369 C20.7428,6.2369 19.8128,5.2739 19.8558,4.0879 C19.8958,2.8989 20.8928,1.9389 22.0768,1.9389" id="Fill-5" fill="#FFFFFF"></path>
            <path d="M13.3698,14.1635 C14.7328,14.1635 15.8008,15.2685 15.7508,16.6305 C15.7038,17.9935 14.5628,19.0985 13.1988,19.0985 C11.8378,19.0985 10.7708,17.9935 10.8178,16.6305 C10.8668,15.2685 12.0088,14.1635 13.3698,14.1635" id="Fill-7" fill="#FFFFFF"></path>
            <path d="M42.7453,6.8564 C44.4643,6.8564 45.8113,8.2524 45.7543,9.9744 C45.6923,11.6984 44.2473,13.0934 42.5263,13.0934 C40.8023,13.0934 39.4583,11.6984 39.5173,9.9744 C39.5773,8.2524 41.0223,6.8564 42.7453,6.8564" id="Fill-9" fill="#FFFFFF"></path>
            <path d="M28.7849,6.8564 C30.5069,6.8564 31.8529,8.2524 31.7919,9.9744 C31.7329,11.6984 30.2909,13.0934 28.5659,13.0934 C26.8449,13.0934 25.4979,11.6984 25.5569,9.9744 C25.6179,8.2524 27.0599,6.8564 28.7849,6.8564" id="Fill-11" fill="#FFFFFF"></path>
            <path d="M6.1242,11.1152 C7.4852,11.1152 8.5522,12.2192 8.5052,13.5832 C8.4582,14.9442 7.3142,16.0482 5.9542,16.0482 C4.5902,16.0482 3.5252,14.9442 3.5742,13.5832 C3.6202,12.2192 4.7632,11.1152 6.1242,11.1152" id="Fill-13" fill="#FFFFFF"></path>
            <path d="M35.7634,-0.0001 C37.4874,-0.0001 38.8334,1.3939 38.7724,3.1179 C38.7134,4.8399 37.2694,6.2369 35.5484,6.2369 C33.8234,6.2369 32.4764,4.8399 32.5374,3.1179 C32.5964,1.3939 34.0414,-0.0001 35.7634,-0.0001" id="Fill-15" fill="#FFFFFF"></path>
            <g id="Group-19" transform="translate(0.000000, 15.078800)">
                <mask id="mask-2" fill="white">
                    <use xlink:href="#path-1"></use>
                </mask>
                <g id="Clip-18"></g>
                <path d="M132.588,0.5295 L132.588,27.0905 C133.743,27.2665 134.842,27.3895 136.08,27.5105 L136.08,30.2825 C133.925,30.5295 130.961,30.7205 128.303,30.5835 C128.291,29.0795 128.425,27.5235 128.599,26.6685 L128.514,26.6685 C127.291,29.4245 124.84,31.0005 121.723,31.0005 C116.142,31.0005 114.046,26.6285 114.046,21.1605 C114.046,15.1765 117.163,9.3445 124.945,9.3445 C125.734,9.3445 127.161,9.3985 128.09,9.5145 L128.09,4.0195 C127.26,3.8565 125.143,3.6635 124.43,3.5985 L124.431,0.8235 C126.376,0.5845 129.481,0.3945 132.588,0.5295 Z M103.157,9.2615 C109.127,9.2615 111.693,13.3415 111.693,18.3015 C111.693,18.8915 111.649,19.6055 111.567,20.4035 L111.567,20.4035 L98.237,20.4035 C98.111,25.2395 100.256,27.4275 104.419,27.4275 C106.563,27.4275 108.793,26.9215 110.514,26.0825 L110.514,26.0825 L110.936,29.6545 C108.834,30.5375 106.268,31.0005 103.702,31.0005 C97.184,31.0005 93.613,27.6365 93.613,20.2785 C93.613,13.9725 97.061,9.2615 103.157,9.2615 Z M46.795,9.2615 C48.389,9.2615 50.269,9.5255 51.882,9.8935 L51.882,15.7375 L49.109,15.7375 C48.856,14.7855 48.69,13.7755 48.602,12.7075 C47.903,12.5695 47.19,12.5015 46.46,12.5015 C44.033,12.5015 42.633,13.4355 42.633,15.2335 C42.633,15.9095 42.861,16.3825 43.2,16.7225 C45.025,18.5465 49.237,18.3065 51.651,20.7205 C52.494,21.5635 52.937,22.4695 52.937,24.0205 C52.937,28.2235 49.176,31.0005 43.769,31.0005 C42.137,31.0005 39.939,30.7765 38.597,30.4105 L38.597,24.3155 L41.416,24.3155 C41.638,25.3505 41.793,26.3755 41.876,27.3825 C42.359,27.4735 43.348,27.5955 44.191,27.5955 C46.492,27.5955 48.437,26.6315 48.437,24.6935 C48.437,23.9795 48.17,23.5355 47.882,23.2475 C46.142,21.5075 41.885,21.6965 39.473,19.2845 C38.596,18.4075 38.134,17.4415 38.134,15.7375 C38.134,11.7055 41.582,9.2615 46.795,9.2615 Z M82.518,9.3185 C86.32,9.3185 88.662,11.4055 88.662,16.0065 L88.662,27.3155 C89.613,27.3945 91.303,27.6165 92.152,27.8615 L92.152,30.6385 L84.162,30.6385 L84.162,17.1815 C84.162,14.8225 83.593,13.0615 81.166,13.0615 C78.217,13.0615 75.833,16.4815 75.833,20.5475 L75.833,30.6385 L71.337,30.6385 L71.337,17.1815 C71.337,14.8225 70.767,13.0615 68.341,13.0615 C65.392,13.0615 63.007,16.4815 63.007,20.5475 L63.007,30.6385 L58.511,30.6385 L58.511,13.2305 C57.681,13.0675 55.564,12.8755 54.851,12.8105 L54.851,10.0355 C56.97,9.7365 60.477,9.6415 62.841,9.7405 C62.847,10.5775 62.721,12.7715 62.499,13.8195 L62.554,13.8455 C63.981,10.7815 66.657,9.3185 69.796,9.3185 C73.428,9.3185 75.069,11.6485 75.442,13.7675 C76.843,10.9155 79.316,9.3185 82.518,9.3185 Z M26.084,9.3185 C29.97,9.3185 32.331,11.4055 32.331,16.0065 L32.331,27.3155 C33.282,27.3945 34.972,27.6165 35.821,27.8615 L35.821,30.6385 L27.831,30.6385 L27.831,17.1815 C27.831,14.6275 27.213,13.0615 24.731,13.0615 C21.7,13.0615 19.296,16.3745 19.296,20.5475 L19.296,30.6385 L14.799,30.6385 L14.799,13.2305 C13.969,13.0675 11.852,12.8755 11.139,12.8105 L11.139,10.0355 C13.258,9.7365 16.765,9.6415 19.129,9.7405 C19.135,10.5775 19.009,12.7715 18.787,13.8195 L18.841,13.8455 C20.269,10.7815 22.945,9.3185 26.084,9.3185 Z M8.202,4.0195 L8.202,30.6385 L3.617,30.6385 L3.617,7.3335 C2.279,7.2065 1.127,7.0635 0,6.7945 L0,4.0195 L8.202,4.0195 Z M124.77,12.9195 C123.383,12.9195 121.869,13.2685 120.604,14.5335 C119.517,15.6205 118.756,17.3955 118.756,20.7405 C118.756,24.8375 120.003,27.3015 122.919,27.3015 C126.227,27.3015 128.09,23.3605 128.09,19.7735 L128.09,13.2995 C126.94,13.0475 125.833,12.9195 124.77,12.9195 Z M102.988,12.5835 C100.466,12.5855 98.699,14.4325 98.321,17.2515 L98.321,17.2515 L107.194,17.2515 C107.278,14.3925 105.638,12.5835 102.988,12.5835 Z" id="Fill-17" fill="#FFFFFF" mask="url(#mask-2)"></path>
            </g>
            <path d="M134.6677,17.9003 L134.6677,17.8873 C134.6677,16.6223 135.6947,15.5633 136.9987,15.5633 C138.3017,15.5633 139.3157,16.6093 139.3157,17.8743 L139.3157,17.8873 C139.3157,19.1523 138.2887,20.2123 136.9857,20.2123 C135.6827,20.2123 134.6677,19.1653 134.6677,17.9003 L134.6677,17.9003 Z M139.1047,17.8873 L139.1047,17.8743 C139.1047,16.7123 138.1987,15.7623 136.9987,15.7623 C135.7917,15.7623 134.8797,16.7253 134.8797,17.8873 L134.8797,17.9003 C134.8797,19.0623 135.7847,20.0123 136.9857,20.0123 C138.1927,20.0123 139.1047,19.0493 139.1047,17.8873 L139.1047,17.8873 Z M136.0807,16.6293 L137.1457,16.6293 C137.4477,16.6293 137.6977,16.7253 137.8527,16.8793 C137.9677,16.9883 138.0447,17.1493 138.0447,17.3413 L138.0447,17.3553 C138.0447,17.7393 137.7887,17.9713 137.4287,18.0543 L138.1667,19.0103 L137.7307,19.0103 L137.0427,18.1123 L137.0307,18.1123 L136.4337,18.1123 L136.4337,19.0103 L136.0807,19.0103 L136.0807,16.6293 Z M137.1137,17.7973 C137.4477,17.7973 137.6787,17.6433 137.6787,17.3743 L137.6787,17.3603 C137.6787,17.1103 137.4737,16.9503 137.1337,16.9503 L136.4337,16.9503 L136.4337,17.7973 L137.1137,17.7973 Z" id="Fill-20" fill="#FFFFFF"></path>
        </g>
    </g>
</svg>